<svg xmlns="http://www.w3.org/2000/svg" width="1792" height="1792" viewBox="0 0 1792 1792"><g><title>background</title><rect id="canvas_background" width="1794" height="1794" x="-1" y="-1" fill="#9fda4f"/></g><g><title>Layer 1</title><path id="svg_1" fill="#fff" stroke="null" d="m1355.975006,1164.318774l0,76.662504q0,15.572071 -11.379591,26.951662t-26.951662,11.379591l-843.287549,0q-15.572071,0 -26.951662,-11.379591t-11.379591,-26.951662l0,-76.662504q0,-15.572071 11.379591,-26.951662t26.951662,-11.379591l843.287549,0q15.572071,0 26.951662,11.379591t11.379591,26.951662zm0,-306.650018l0,76.662504q0,15.572071 -11.379591,26.951662t-26.951662,11.379591l-843.287549,0q-15.572071,0 -26.951662,-11.379591t-11.379591,-26.951662l0,-76.662504q0,-15.572071 11.379591,-26.951662t26.951662,-11.379591l843.287549,0q15.572071,0 26.951662,11.379591t11.379591,26.951662zm0,-306.650018l0,76.662504q0,15.572071 -11.379591,26.951662t-26.951662,11.379591l-843.287549,0q-15.572071,0 -26.951662,-11.379591t-11.379591,-26.951662l0,-76.662504q0,-15.572071 11.379591,-26.951662t26.951662,-11.379591l843.287549,0q15.572071,0 26.951662,11.379591t11.379591,26.951662z"/></g></svg>