<svg xmlns="http://www.w3.org/2000/svg" width="1792" height="1792" viewBox="0 0 1792 1792"><g><title>background</title><rect id="canvas_background" width="34484.575" height="34484.575" x="-1" y="-1" fill="none"/></g><g><title>Layer 1</title><rect id="svg_1" width="1792" height="1792" fill="#a4276a" stroke="null"/><path id="svg_2" fill="#fff" stroke="null" d="m1064.970978,1166.353535l0,67.588387q0,13.728891 -10.032651,23.761542t-23.761542,10.032651l-270.353546,0q-13.728891,0 -23.761542,-10.032651t-10.032651,-23.761542l0,-67.588387q0,-13.728891 10.032651,-23.761542t23.761542,-10.032651l33.794193,0l0,-202.76516l-33.794193,0q-13.728891,0 -23.761542,-10.032651t-10.032651,-23.761542l0,-67.588387q0,-13.728891 10.032651,-23.761542t23.761542,-10.032651l202.76516,0q13.728891,0 23.761542,10.032651t10.032651,23.761542l0,304.147739l33.794193,0q13.728891,0 23.761542,10.032651t10.032651,23.761542zm-67.588387,-608.295479l0,101.38258q0,13.728891 -10.032651,23.761542t-23.761542,10.032651l-135.176773,0q-13.728891,0 -23.761542,-10.032651t-10.032651,-23.761542l0,-101.38258q0,-13.728891 10.032651,-23.761542t23.761542,-10.032651l135.176773,0q13.728891,0 23.761542,10.032651t10.032651,23.761542z"/></g></svg>